<svg width="6" height="9" viewBox="0 0 6 9" fill="none" xmlns="http://www.w3.org/2000/svg">
<path d="M0.877518 0.750222C0.73783 0.890744 0.659424 1.08083 0.659424 1.27897C0.659424 1.47711 0.73783 1.6672 0.877518 1.80772L3.53252 4.50022L0.877518 7.15522C0.73783 7.29574 0.659424 7.48583 0.659424 7.68397C0.659424 7.88211 0.73783 8.0722 0.877518 8.21272C0.94724 8.28302 1.03019 8.33881 1.12159 8.37689C1.21298 8.41497 1.31101 8.43457 1.41002 8.43457C1.50903 8.43457 1.60706 8.41497 1.69845 8.37689C1.78985 8.33881 1.8728 8.28302 1.94252 8.21272L5.12252 5.03272C5.19281 4.963 5.24861 4.88005 5.28669 4.78865C5.32476 4.69726 5.34437 4.59923 5.34437 4.50022C5.34437 4.40121 5.32476 4.30318 5.28669 4.21179C5.24861 4.12039 5.19281 4.03744 5.12252 3.96772L1.94252 0.750222C1.8728 0.679925 1.78985 0.62413 1.69845 0.586053C1.60706 0.547977 1.50903 0.528372 1.41002 0.528372C1.31101 0.528372 1.21298 0.547977 1.12159 0.586053C1.03019 0.62413 0.947241 0.679925 0.877518 0.750222Z" fill="black"/>
</svg>
