<svg width="39" height="40" viewBox="0 0 39 40" fill="none" xmlns="http://www.w3.org/2000/svg">
<path d="M10.9489 36.6527H27.9375C32.4116 36.6527 34.1948 33.9132 34.4055 30.5738L35.2485 17.1839C35.4754 13.6824 32.6872 10.7159 29.1695 10.7159C28.1807 10.7159 27.2729 10.1485 26.819 9.27316L25.6518 6.92264C24.9061 5.44748 22.9609 4.23169 21.3074 4.23169H17.5952C15.9255 4.23169 13.9803 5.44748 13.2346 6.92264L12.0674 9.27316C11.6135 10.1485 10.7057 10.7159 9.71688 10.7159C6.1992 10.7159 3.41099 13.6824 3.63794 17.1839L4.48088 30.5738C4.67541 33.9132 6.47478 36.6527 10.9489 36.6527Z" stroke="#D6D6D6" stroke-width="2.43158" stroke-linecap="round" stroke-linejoin="round"/>
<path d="M17.0117 13.958H21.8749" stroke="#D6D6D6" stroke-width="2.43158" stroke-linecap="round" stroke-linejoin="round"/>
<path d="M19.4422 30.1684C22.3439 30.1684 24.7107 27.8017 24.7107 24.9C24.7107 21.9983 22.3439 19.6316 19.4422 19.6316C16.5406 19.6316 14.1738 21.9983 14.1738 24.9C14.1738 27.8017 16.5406 30.1684 19.4422 30.1684Z" stroke="#D6D6D6" stroke-width="2.43158" stroke-linecap="round" stroke-linejoin="round"/>
</svg>
