<svg width="20" height="20" viewBox="0 0 20 20" fill="none" xmlns="http://www.w3.org/2000/svg">
<path fill-rule="evenodd" clip-rule="evenodd" d="M15.1025 5.32183C15.3954 5.02894 15.3954 4.55407 15.1025 4.26117C14.8096 3.96828 14.3347 3.96828 14.0418 4.26117L9.68206 8.62091L5.32232 4.26117C5.02943 3.96828 4.55456 3.96828 4.26166 4.26117C3.96877 4.55407 3.96877 5.02894 4.26166 5.32183L8.6214 9.68157L4.26166 14.0413C3.96877 14.3342 3.96877 14.8091 4.26166 15.102C4.55456 15.3949 5.02943 15.3949 5.32232 15.102L9.68206 10.7422L14.0418 15.102C14.3347 15.3949 14.8096 15.3949 15.1025 15.102C15.3954 14.8091 15.3954 14.3342 15.1025 14.0413L10.7427 9.68157L15.1025 5.32183Z" fill="black"/>
</svg>
