<svg width="24" height="24" viewBox="0 0 24 24" fill="none" xmlns="http://www.w3.org/2000/svg">
<path d="M7.0003 9.16994C7.18766 8.98369 7.44111 8.87915 7.7053 8.87915C7.96948 8.87915 8.22293 8.98369 8.4103 9.16994L12.0003 12.7099L15.5403 9.16994C15.7277 8.98369 15.9811 8.87915 16.2453 8.87915C16.5095 8.87915 16.7629 8.98369 16.9503 9.16994C17.044 9.26291 17.1184 9.37351 17.1692 9.49537C17.22 9.61723 17.2461 9.74793 17.2461 9.87994C17.2461 10.012 17.22 10.1427 17.1692 10.2645C17.1184 10.3864 17.044 10.497 16.9503 10.5899L12.7103 14.8299C12.6173 14.9237 12.5067 14.9981 12.3849 15.0488C12.263 15.0996 12.1323 15.1257 12.0003 15.1257C11.8683 15.1257 11.7376 15.0996 11.6157 15.0488C11.4939 14.9981 11.3833 14.9237 11.2903 14.8299L7.0003 10.5899C6.90657 10.497 6.83217 10.3864 6.7814 10.2645C6.73064 10.1427 6.7045 10.012 6.7045 9.87994C6.7045 9.74793 6.73064 9.61722 6.7814 9.49537C6.83217 9.37351 6.90657 9.2629 7.0003 9.16994Z" fill="#D6D6D6"/>
</svg>
